<?xml version="1.0" encoding="utf-8"?>
<!-- Generator: Adobe Illustrator 22.1.0, SVG Export Plug-In . SVG Version: 6.00 Build 0)  -->
<svg version="1.1" id="Layer_1" xmlns="http://www.w3.org/2000/svg" xmlns:xlink="http://www.w3.org/1999/xlink" x="0px" y="0px"
	 viewBox="0 0 225.5 210.4" style="enable-background:new 0 0 225.5 210.4;" xml:space="preserve">
<style type="text/css">
	.st0{fill:#0EA5D5;}
	.st1{fill:#0572B5;}
</style>
<path class="st0" d="M220.7,8.8c-53.4,28.9-51.3,29.6-53.4,26C165.8,29,163.6,31.9,220.7,8.8z M61.8,126.5
	c14.4-12.3,33.2-10.8,31.8-18.1C79.2,114.2,71.9,112.8,61.8,126.5z M46.7,121.4c18.1-12.3,44-8.7,41.9-18.8
	C69.8,108.5,58.9,107.7,46.7,121.4z M30.1,113.5c18.1-12.3,54.2-5.8,54.9-18.1C59.7,103.4,47.4,98.3,30.1,113.5z M14.2,104.8
	c18.1-12.3,66.4-3.6,70-19.5C58.9,93.3,31.5,89,14.2,104.8z M4.8,93.3C22.8,81,82.8,91.8,85.7,76C61.1,83.2,22.1,77.4,4.8,93.3z
	 M51,70.9c18.1-5.8,35.4,3.6,36.1-3.6C71.9,65.8,65.4,61.5,51,70.9z M35.8,59.4c21.7-3.6,46.9,10.1,49.1,0
	C64.7,56.5,53.2,51.4,35.8,59.4z M23.6,38.4c22.4-0.7,52.7,26,57,13.7C54.6,48.5,45.9,31.2,23.6,38.4z M18.5,24.7
	C46.7,26.1,72.7,57.2,82,44.2C56.8,35.5,44.5,21.1,18.5,24.7z M17.8,4.5c31,6.5,54.2,42.6,70.8,34.7C69,29,45.2,3.8,17.8,4.5z
	 M95.8,133.7c-10.1-10.8,9.4-24.6,12.3-15.2c1.4,5.1-10.8,10.8-6.5,2.9c0-2.9-8.7,2.2-3.6,6.5c6.5,5.1,18.1-6.5,13.7-12.3
	c-10.1-13-31.8,11.6-16.6,23.1c10.8,7.9,17.3-15.2,45.5-28.2c37.5-19.5,24.6-48.4,24.6-48.4c-4.3-10.8-4.3-5.1-18.1,0
	c-15.2,5.1-23.1,23.1-13.7,31.8c10.1,7.9,30.3-18.1,13-20.2c-3.6,2.2,6.5,3.6,0.7,10.8c-10.8,12.3-20.9-7.2-1.4-15.9
	c11.6-4.3,13-8.7,14.4-5.1c9.4,22.4-23.1,47.7-28.9,32.5c-1.4-3.6-23.8,13-18.1,13.7C129,112.8,103,140.2,95.8,133.7z"/>
<path class="st1" d="M165.8,30.5c-13.7-11.6-43.3,2.9-31.8,30.3c28.2,3.6,33.9-21.7,33.9-21.7C162.9,34.1,165.8,30.5,165.8,30.5z
	 M145.6,42c-0.7-3.6,5.8-10.1,10.1-7.9C158.6,39.9,148.5,44.9,145.6,42z M153.5,36.2c1.4,2.2-2.2,4.3-3.6,2.9
	C149.2,37.7,152.1,34.8,153.5,36.2z M90,133c-5.8,4.3-11.6,18.1-23.1,18.8C79.9,146,84.9,125.8,90,133z M91.4,137.3
	c-4.3,4.3-11.6,26-26,30.3C80.6,157.6,87.1,130.1,91.4,137.3z M94.3,140.9c-5.8,5.1-7.9,31.8-20.9,40.4
	C86.4,162.6,87.8,134.4,94.3,140.9z M97.2,142.4c-2.9,6.5-1.4,33.9-14.4,52.7C95,163.3,88.5,138.1,97.2,142.4z M100.8,142.4
	c0.7,8.7,2.9,47.7-3.6,63.5C103.7,177.8,90.7,143.1,100.8,142.4z M89.3,96.2c10.8,36.1,39-14.4,42.6-33.2
	C98.6,82.5,82.8,62.2,89.3,96.2z M100.8,89.7c-3.6-16.6,5.8-7.2,23.1-16.6C121.8,81.7,106.6,107.7,100.8,89.7z M84.9,47.1
	c-5.8,10.1,6.5,11.6,7.2,21.7c16.6,0,22.4-0.7,39.7-7.9C94.3,53.6,97.2,29,84.9,47.1z M97.9,64.4c-1.4-5.1-6.5-6.5-3.6-10.1
	c5.8-7.9,5.1,4.3,24.6,7.2C110.2,64.4,106.6,64.4,97.9,64.4z"/>
</svg>
