<svg xmlns="http://www.w3.org/2000/svg" viewBox="0 0 32 32"><path d="M31 2.6c-7.4 4-7.1 4.1-7.4 3.6-.2-.8-.5-.4 7.4-3.6zM9 18.9c2-1.7 4.6-1.5 4.4-2.5-2 .8-3 .6-4.4 2.5zm-2.1-.7c2.5-1.7 6.1-1.2 5.8-2.6-2.6.8-4.1.7-5.8 2.6zm-2.3-1.1c2.5-1.7 7.5-.8 7.6-2.5-3.5 1.1-5.2.4-7.6 2.5zm-2.2-1.2c2.5-1.7 9.2-.5 9.7-2.7-3.5 1.1-7.3.5-9.7 2.7zm-1.3-1.6c2.5-1.7 10.8-.2 11.2-2.4-3.4 1-8.8.2-11.2 2.4zm6.4-3.1c2.5-.8 4.9.5 5-.5-2.1-.2-3-.8-5 .5zM5.4 9.6c3-.5 6.5 1.4 6.8 0-2.8-.4-4.4-1.1-6.8 0zM3.7 6.7c3.1-.1 7.3 3.6 7.9 1.9C8 8.1 6.8 5.7 3.7 6.7zM3 4.8c3.9.2 7.5 4.5 8.8 2.7C8.3 6.3 6.6 4.3 3 4.8zM2.9 2c4.3.9 7.5 5.9 9.8 4.8C10 5.4 6.7 1.9 2.9 2zm10.8 17.9c-1.4-1.5 1.3-3.4 1.7-2.1.2.7-1.5 1.5-.9.4 0-.4-1.2.3-.5.9.9.7 2.5-.9 1.9-1.7-1.4-1.8-4.4 1.6-2.3 3.2 1.5 1.1 2.4-2.1 6.3-3.9 5.2-2.7 3.4-6.7 3.4-6.7-.6-1.5-.6-.7-2.5 0-2.1.7-3.2 3.2-1.9 4.4 1.4 1.1 4.2-2.5 1.8-2.8-.5.3.9.5.1 1.5-1.5 1.7-2.9-1-.2-2.2 1.6-.6 1.8-1.2 2-.7 1.3 3.1-3.2 6.6-4 4.5-.2-.5-3.3 1.8-2.5 1.9 2.2.4-1.4 4.2-2.4 3.3z" fill="#0ea5d5"/><path d="M23.4 5.6C21.5 4 17.4 6 19 9.8c3.9.5 4.7-3 4.7-3-.7-.7-.3-1.2-.3-1.2zm-2.8 1.6c-.1-.5.8-1.4 1.4-1.1.4.8-1 1.5-1.4 1.1zm1.1-.8c.2.3-.3.6-.5.4-.1-.2.3-.6.5-.4zm-8.8 13.4c-.8.6-1.6 2.5-3.2 2.6 1.8-.8 2.5-3.6 3.2-2.6zm.2.6c-.6.6-1.6 3.6-3.6 4.2 2.1-1.4 3-5.2 3.6-4.2zm.4.5c-.8.7-1.1 4.4-2.9 5.6 1.8-2.6 2-6.5 2.9-5.6zm.4.2c-.4.9-.2 4.7-2 7.3 1.7-4.4.8-7.9 2-7.3zm.5 0c.1 1.2.4 6.6-.5 8.8.9-3.9-.9-8.7.5-8.8zm-1.6-6.4c1.5 5 5.4-2 5.9-4.6-4.6 2.7-6.8-.1-5.9 4.6zm1.6-.9c-.5-2.3.8-1 3.2-2.3-.3 1.2-2.4 4.8-3.2 2.3zm-2.2-5.9c-.8 1.4.9 1.6 1 3 2.3 0 3.1-.1 5.5-1.1-5.2-1-4.8-4.4-6.5-1.9zm1.8 2.4c-.2-.7-.9-.9-.5-1.4.8-1.1.7.6 3.4 1-1.2.4-1.7.4-2.9.4z" fill="#0572b5"/></svg>