<?xml version="1.0" encoding="UTF-8" standalone="no"?>
<!-- Created with Inkscape (http://www.inkscape.org/) -->

<svg
   xmlns:dc="http://purl.org/dc/elements/1.1/"
   xmlns:cc="http://creativecommons.org/ns#"
   xmlns:rdf="http://www.w3.org/1999/02/22-rdf-syntax-ns#"
   xmlns:svg="http://www.w3.org/2000/svg"
   xmlns="http://www.w3.org/2000/svg"
   xmlns:sodipodi="http://sodipodi.sourceforge.net/DTD/sodipodi-0.dtd"
   xmlns:inkscape="http://www.inkscape.org/namespaces/inkscape"
   version="1.1"
   id="svg2"
   xml:space="preserve"
   width="32"
   height="32"
   viewBox="0 0 32 32"
   sodipodi:docname="Lenguaje_Latino-Icon.svg"
   inkscape:version="0.92.2 5c3e80d, 2017-08-06"><metadata
     id="metadata8"><rdf:RDF><cc:Work
         rdf:about=""><dc:format>image/svg+xml</dc:format><dc:type
           rdf:resource="http://purl.org/dc/dcmitype/StillImage" /><dc:title></dc:title></cc:Work></rdf:RDF></metadata><defs
     id="defs6"><clipPath
       clipPathUnits="userSpaceOnUse"
       id="clipPath18"><path
         d="M 0,273.986 H 1374.752 V 0 H 0 Z"
         id="path16"
         inkscape:connector-curvature="0" /></clipPath><clipPath
       clipPathUnits="userSpaceOnUse"
       id="clipPath142"><path
         d="M 0,273.986 H 1374.752 V 0 H 0 Z"
         id="path140"
         inkscape:connector-curvature="0" /></clipPath></defs><sodipodi:namedview
     pagecolor="#ffffff"
     bordercolor="#666666"
     borderopacity="1"
     objecttolerance="10"
     gridtolerance="10"
     guidetolerance="10"
     inkscape:pageopacity="0"
     inkscape:pageshadow="2"
     inkscape:window-width="1280"
     inkscape:window-height="690"
     id="namedview4"
     showgrid="false"
     units="px"
     fit-margin-top="2"
     fit-margin-left="2"
     fit-margin-right="2"
     fit-margin-bottom="2"
     inkscape:zoom="14.90625"
     inkscape:cx="18"
     inkscape:cy="16.858933"
     inkscape:window-x="0"
     inkscape:window-y="1"
     inkscape:window-maximized="1"
     inkscape:current-layer="g10" /><g
     id="g10"
     inkscape:groupmode="layer"
     inkscape:label="Lenguaje Latino - Logo (Manual)"
     transform="matrix(1.3333333,0,0,-1.3333333,2.0000002,31.141066)"><g
       id="g4074"
       transform="translate(-1.0375e-6)"><g
         transform="matrix(0.12238717,0,0,0.12238717,-0.7499987,12.583418)"
         id="g20"><path
           inkscape:connector-curvature="0"
           id="path22"
           style="fill:#0ea5d5;fill-opacity:1;fill-rule:nonzero;stroke:none"
           d="m 0,0 c 0.288,0.112 0.644,0.152 0.854,0.348 4.356,4.018 9.554,6.397 15.227,7.844 4.96,1.266 10.024,1.812 15.122,2.092 5.434,0.299 10.875,0.505 16.303,0.887 6.786,0.479 13.515,1.361 20.004,3.56 1.047,0.354 1.604,-0.222 1.329,-1.38 C 68.418,11.577 67.159,10.55 65.559,9.909 62.308,8.609 58.956,7.652 55.519,6.975 49.816,5.851 44.036,5.701 38.259,5.562 34.466,5.472 30.666,5.617 26.877,5.463 23.192,5.313 19.481,5.151 15.849,4.572 10.794,3.765 5.863,2.368 1.247,0.05 0.83,-0.159 0.416,-0.372 0,-0.583 Z" /></g><g
         transform="matrix(0.12238717,0,0,0.12238717,15.556782,15.172911)"
         id="g24"><path
           inkscape:connector-curvature="0"
           id="path26"
           style="fill:#0ea5d5;fill-opacity:1;fill-rule:nonzero;stroke:none"
           d="m 0,0 c -0.181,1.237 -0.247,2.56 -0.587,3.808 -0.445,1.639 -1.601,2.064 -2.847,0.969 -2.337,-2.053 -5.202,-2.98 -7.985,-4.11 -2.346,-0.952 -4.641,-1.978 -6.67,-3.545 -3.463,-2.676 -4.473,-7.122 -3.525,-10.885 0.488,-1.938 2.465,-3.381 4.944,-2.844 3.153,0.683 5.394,2.59 6.662,5.567 0.615,1.444 0.168,2.811 -1.201,3.664 -0.694,0.432 -1.527,0.642 -2.224,1.071 -0.407,0.252 -0.918,0.733 -0.927,1.121 -0.011,0.417 0.441,0.936 0.825,1.243 0.306,0.245 0.813,0.326 1.232,0.329 3.782,0.02 7.033,-2.542 5.66,-7.33 -1.144,-3.993 -3.878,-6.771 -7.25,-8.997 -1.646,-1.088 -3.436,-1.768 -5.432,-1.919 -3.913,-0.297 -5.797,2.101 -6.487,5.159 -1.041,4.603 0.025,8.843 2.418,12.835 1.7,2.833 3.859,5.232 6.469,7.24 1.448,1.114 3.065,1.884 4.834,2.311 3.411,0.821 6.499,2.266 9.17,4.577 0.582,0.503 1.262,0.903 1.929,1.295 0.984,0.579 1.967,0.384 2.624,-0.454 C 2.276,10.284 2.911,9.332 3.153,8.341 3.932,5.144 4.611,1.917 5.176,-1.326 6.375,-8.211 3.748,-14.074 0.159,-19.686 c -3.867,-6.046 -9.25,-10.466 -15.23,-14.202 -3.249,-2.03 -6.719,-3.702 -10.035,-5.629 -6.141,-3.566 -11.575,-8.008 -16.308,-13.318 -1.742,-1.954 -3.516,-3.919 -5.514,-5.594 -3.034,-2.543 -6.731,-2.588 -9.368,-0.419 -1.463,1.202 -2.489,2.709 -3.106,4.501 -0.941,2.728 -0.852,5.474 0.074,8.151 1.308,3.787 3.571,6.898 7.098,8.93 2.605,1.502 5.326,1.75 8.063,0.313 2.813,-1.477 3.854,-4.187 2.452,-7.014 -1.586,-3.195 -4.154,-5.49 -7.469,-6.831 -1.727,-0.699 -3.562,-0.233 -4.459,0.797 -1.556,1.789 -0.759,5.209 1.923,6.264 0.239,0.094 0.699,0.102 0.796,-0.035 0.156,-0.221 0.159,-0.605 0.112,-0.902 -0.074,-0.471 -0.323,-0.922 -0.357,-1.391 -0.087,-1.192 0.362,-1.57 1.569,-1.423 2.074,0.252 4.733,3.255 4.73,5.34 -0.002,1.835 -1.775,3.109 -3.992,2.799 -1.715,-0.24 -3.26,-0.892 -4.597,-2.041 -3.18,-2.734 -4.603,-8.127 -2.983,-11.85 0.349,-0.805 0.997,-1.553 1.678,-2.124 1.083,-0.907 2.415,-1.113 3.685,-0.413 1.096,0.604 2.236,1.251 3.098,2.133 2.713,2.779 5.353,5.635 7.924,8.547 1.357,1.536 2.348,3.332 2.841,5.364 0.6,2.47 -0.252,4.15 -2.595,5.144 -0.844,0.359 -1.688,0.744 -2.471,1.219 -0.67,0.408 -0.708,1.035 -0.139,1.59 0.414,0.404 0.855,0.826 1.362,1.08 3.467,1.733 6.374,4.265 9.465,6.536 0.74,0.544 1.54,1.01 2.322,1.497 0.978,0.609 1.88,0.352 2.669,-0.349 0.505,-0.449 0.951,-0.975 1.374,-1.505 1.774,-2.227 4.079,-2.822 6.778,-2.267 2.399,0.494 4.41,1.786 6.315,3.214 2.656,1.99 5.002,4.32 7.074,6.919 2.393,3.001 3.767,6.442 4.319,10.211 C -0.435,-4.335 -0.251,-2.208 0,0" /></g><g
         transform="matrix(0.12238717,0,0,0.12238717,14.288092,17.888731)"
         id="g28"><path
           inkscape:connector-curvature="0"
           id="path30"
           style="fill:#0572b5;fill-opacity:1;fill-rule:nonzero;stroke:none"
           d="M 0,0 C 2.948,-0.022 5.666,1.95 6.351,4.607 6.918,6.808 5.502,8.279 3.289,7.749 0.811,7.156 -0.897,5.56 -2.015,3.352 -3.51,0.399 -2.612,0.321 0,0 m -12.391,-14.229 c -0.501,1.953 -1.283,4.113 -1.566,6.337 -0.33,2.588 -0.314,5.237 0.294,7.826 1.351,5.746 4.738,9.861 10.008,12.461 3.143,1.55 6.503,2.299 9.967,2.081 2.592,-0.164 5.197,-0.649 7.51,-2.027 1.154,-0.686 1.22,-0.916 0.848,-2.196 -0.511,-1.758 -0.496,-3.483 0.855,-4.888 1.053,-1.095 0.979,-2.09 0.319,-3.391 -1.378,-2.714 -2.566,-5.518 -4.469,-7.94 -4.11,-5.233 -9.346,-8.32 -16.108,-8.473 -1.349,-0.031 -2.703,0.157 -4.054,0.202 -1.05,0.036 -2.102,0.008 -3.604,0.008" /></g><g
         transform="matrix(0.12238717,0,0,0.12238717,11.654014,14.89246)"
         id="g32"><path
           inkscape:connector-curvature="0"
           id="path34"
           style="fill:#0572b5;fill-opacity:1;fill-rule:nonzero;stroke:none"
           d="m 0,0 c -1.146,-0.487 -1.977,-0.835 -2.803,-1.192 -4.749,-2.056 -9.333,-4.585 -14.673,-4.918 -0.498,-0.031 -1.263,-0.625 -1.377,-1.087 -0.399,-1.625 -0.811,-3.313 -0.77,-4.967 0.073,-2.989 1.609,-5.44 3.523,-7.649 0.785,-0.905 1.237,-0.985 2.256,-0.276 1.034,0.72 2.057,1.473 2.993,2.314 4.689,4.211 7.934,9.392 10.113,15.27 C -0.478,-1.802 -0.311,-1.064 0,0 M 8.322,7.485 C 7.555,5.103 6.857,2.695 6.008,0.343 3.733,-5.957 0.826,-11.94 -3.071,-17.416 c -4.003,-5.625 -8.773,-10.473 -14.59,-14.218 -1.819,-1.172 -2.637,-1.599 -4.573,0.631 -3.527,4.061 -6.289,8.503 -7.145,13.899 -0.529,3.338 -0.229,6.665 0.556,9.958 1.079,4.533 2.463,4.716 5.987,4.849 4.95,0.185 9.669,1.569 14.257,3.321 C -3.377,3.009 1.759,5.171 6.923,7.255 7.278,7.399 7.635,7.539 7.99,7.681 8.101,7.616 8.211,7.55 8.322,7.485" /></g><g
         transform="matrix(0.12238717,0,0,0.12238717,11.15957,16.023881)"
         id="g36"><path
           inkscape:connector-curvature="0"
           id="path38"
           style="fill:#0572b5;fill-opacity:1;fill-rule:nonzero;stroke:none"
           d="m 0,0 c -5.912,1.84 -11.276,4.524 -15.879,8.657 -1.261,1.132 -2.44,1.047 -3.568,-0.231 -2.357,-2.67 -2.576,-5.017 -0.266,-7.615 0.909,-1.022 1.846,-1.997 1.779,-3.637 C -11.651,-3.35 -5.724,-2.423 0,0 M 10.571,-0.178 C 7.484,-1.273 4.429,-2.467 1.304,-3.441 c -5.832,-1.82 -11.792,-3.033 -17.922,-3.204 -1.987,-0.055 -3.981,0.033 -5.966,0.134 -0.298,0.015 -0.844,0.497 -0.817,0.706 0.37,2.926 -1.695,4.581 -3.27,6.512 -0.758,0.928 -1.504,1.894 -2.076,2.94 -1.207,2.206 -1.377,4.596 -0.427,6.892 0.676,1.63 1.554,3.268 2.698,4.593 2.367,2.741 4.826,3.168 7.725,0.47 C -13.168,10.409 -6.775,6.446 0.301,3.645 3.349,2.438 6.534,1.58 9.654,0.554 c 0.303,-0.1 0.583,-0.268 0.874,-0.404 0.015,-0.109 0.029,-0.218 0.043,-0.328" /></g><g
         transform="matrix(0.12238717,0,0,0.12238717,0.21439997,11.425036)"
         id="g40"><path
           inkscape:connector-curvature="0"
           id="path42"
           style="fill:#0ea5d5;fill-opacity:1;fill-rule:nonzero;stroke:none"
           d="m 0,0 c 0.826,0.715 1.621,1.469 2.482,2.139 4.663,3.631 9.903,6.015 15.657,7.354 5.127,1.194 10.359,1.537 15.559,2.164 4.848,0.585 9.709,1.108 14.522,1.91 2.958,0.494 5.838,1.456 8.75,2.22 0.653,0.171 1.293,0.392 1.906,0.58 0.786,-0.624 0.806,-1.27 0.482,-2.106 -0.591,-1.53 -1.732,-2.439 -3.17,-3.008 C 51.476,9.39 46.621,8.059 41.609,7.243 37.196,6.524 32.741,6.442 28.304,6.091 24.581,5.796 20.841,5.614 17.146,5.113 12.077,4.425 7.202,2.954 2.558,0.774 1.787,0.413 1.031,0.019 0.269,-0.36 0.179,-0.24 0.09,-0.12 0,0" /></g><g
         transform="matrix(0.12238717,0,0,0.12238717,1.0038217,21.795672)"
         id="g44"><path
           inkscape:connector-curvature="0"
           id="path46"
           style="fill:#0ea5d5;fill-opacity:1;fill-rule:nonzero;stroke:none"
           d="m 0,0 c 1.986,0 3.73,0.162 5.435,-0.03 5.396,-0.608 10.303,-2.649 14.987,-5.328 5.479,-3.134 10.485,-6.953 15.612,-10.603 4.814,-3.428 9.694,-6.766 15.05,-9.318 1.4,-0.667 2.855,-1.218 4.285,-1.825 0.519,-0.221 1.035,-0.45 1.559,-0.677 -0.284,-1.454 -1.227,-1.906 -2.383,-2.181 -1.684,-0.401 -3.162,0.307 -4.649,0.837 -5.8,2.066 -11.102,5.073 -15.996,8.787 -4.627,3.511 -9.125,7.195 -13.813,10.623 C 14.185,-5.399 7.843,-1.902 0.598,-0.326 0.472,-0.299 0.36,-0.2 0,0" /></g><g
         transform="matrix(0.12238717,0,0,0.12238717,0.8782035,19.752565)"
         id="g48"><path
           inkscape:connector-curvature="0"
           id="path50"
           style="fill:#0ea5d5;fill-opacity:1;fill-rule:nonzero;stroke:none"
           d="m 0,0 c 3.759,0.619 7.52,0.637 11.288,-0.008 5.873,-1.005 11.171,-3.507 16.384,-6.242 5.54,-2.907 11.002,-5.984 16.887,-8.171 2.315,-0.861 4.693,-1.55 7.047,-2.305 1.104,-0.354 1.25,-0.839 0.469,-1.722 -0.696,-0.787 -1.65,-1.129 -2.626,-1.023 -1.726,0.186 -3.464,0.438 -5.143,0.868 -5.918,1.517 -11.408,4.05 -16.683,7.111 -4.488,2.605 -8.883,5.39 -13.696,7.404 -4.279,1.79 -8.685,3.083 -13.303,3.611 -0.219,0.025 -0.432,0.108 -0.647,0.164 C -0.016,-0.208 -0.008,-0.104 0,0" /></g><g
         transform="matrix(0.12238717,0,0,0.12238717,7.5995845,12.473931)"
         id="g52"><path
           inkscape:connector-curvature="0"
           id="path54"
           style="fill:#0ea5d5;fill-opacity:1;fill-rule:nonzero;stroke:none"
           d="m 0,0 c 0.725,-1.251 0.477,-2.317 -0.298,-3.089 -0.836,-0.834 -1.827,-1.679 -2.912,-2.069 -6.319,-2.271 -12.818,-3.826 -19.519,-4.481 -4.299,-0.421 -8.634,-0.783 -12.708,-2.319 -3.66,-1.38 -7.219,-3.026 -10.824,-4.554 -0.159,-0.068 -0.324,-0.122 -0.487,-0.182 -0.072,0.076 -0.146,0.153 -0.218,0.229 0.413,0.475 0.761,1.037 1.251,1.41 1.928,1.465 3.873,2.912 5.864,4.29 3.661,2.535 7.793,3.899 12.14,4.618 4.258,0.703 8.542,1.248 12.804,1.929 4.615,0.738 9.058,2.118 13.435,3.727 C -1.021,-0.326 -0.562,-0.187 0,0" /></g><g
         transform="matrix(0.12238717,0,0,0.12238717,21.750001,21.376582)"
         id="g56"><path
           inkscape:connector-curvature="0"
           id="path58"
           style="fill:#0ea5d5;fill-opacity:1;fill-rule:nonzero;stroke:none"
           d="m 0,0 c -0.738,-0.427 -1.466,-0.875 -2.216,-1.279 -5.152,-2.776 -10.312,-5.536 -15.465,-8.312 -7.279,-3.923 -14.553,-7.853 -21.829,-11.784 -0.849,-0.458 -1.678,-0.958 -2.538,-1.398 -0.995,-0.509 -1.758,-0.353 -2.453,0.436 -1.01,1.146 -1.268,3.174 -0.498,4.478 0.171,0.289 0.567,0.494 0.904,0.63 3.817,1.549 7.643,3.075 11.465,4.609 5.525,2.217 11.048,4.438 16.572,6.656 4.987,2 9.972,4 14.961,5.993 0.303,0.121 0.631,0.181 0.948,0.27 C -0.1,0.2 -0.05,0.1 0,0" /></g><g
         transform="matrix(0.12238717,0,0,0.12238717,1.755952,18.175337)"
         id="g60"><path
           inkscape:connector-curvature="0"
           id="path62"
           style="fill:#0ea5d5;fill-opacity:1;fill-rule:nonzero;stroke:none"
           d="m 0,0 c 0.302,0.142 0.424,0.231 0.558,0.257 4.769,0.894 9.548,1.159 14.307,-0.012 3.41,-0.839 6.589,-2.298 9.723,-3.855 4.919,-2.444 9.927,-4.668 15.277,-6.019 1.493,-0.377 2.989,-0.741 4.449,-1.102 0.146,-0.985 -0.294,-1.511 -0.961,-1.915 -1.195,-0.726 -2.479,-0.807 -3.801,-0.497 -5.741,1.349 -11.249,3.343 -16.535,5.957 -2.433,1.204 -4.839,2.478 -7.333,3.542 C 12.056,-2.097 8.26,-1.139 4.312,-0.78 2.922,-0.654 1.554,-0.289 0,0" /></g><g
         transform="matrix(0.12238717,0,0,0.12238717,8.8593156,0.97289018)"
         id="g64"><path
           inkscape:connector-curvature="0"
           id="path66"
           style="fill:#0572b5;fill-opacity:1;fill-rule:nonzero;stroke:none"
           d="m 0,0 c 0.203,1.091 0.37,2.189 0.615,3.271 1.075,4.746 1.09,9.535 0.548,14.334 -0.632,5.592 -1.498,11.161 -1.976,16.764 -0.457,5.33 -0.453,10.691 0.861,15.944 0.195,0.784 0.557,1.561 1.002,2.237 0.583,0.89 1.178,1.047 2.469,0.913 C 3.233,52.699 2.795,51.973 2.71,51.208 2.496,49.283 2.249,47.33 2.361,45.409 2.64,40.614 3.154,35.834 3.494,31.043 3.932,24.891 4.476,18.735 3.857,12.563 3.465,8.637 2.718,4.792 0.943,1.22 0.717,0.763 0.36,0.37 0.064,-0.052 Z" /></g><g
         transform="matrix(0.12238717,0,0,0.12238717,7.4519733,1.8990428)"
         id="g68"><path
           inkscape:connector-curvature="0"
           id="path70"
           style="fill:#0572b5;fill-opacity:1;fill-rule:nonzero;stroke:none"
           d="m 0,0 c 0.962,2.838 2.088,5.634 2.837,8.527 0.651,2.518 1.001,5.135 1.259,7.73 0.262,2.654 0.268,5.334 0.356,8.004 0.183,5.542 0.694,11.035 2.345,16.365 0.4,1.294 0.745,2.615 1.271,3.857 0.331,0.781 0.868,1.526 1.47,2.129 0.615,0.616 1.438,0.961 2.328,0.519 C 11.358,45.798 10.707,44.553 10.421,43.229 9.931,40.96 9.562,38.653 9.335,36.343 8.928,32.19 8.771,28.013 8.317,23.867 7.614,17.437 6.552,11.06 3.626,5.197 2.686,3.314 1.34,1.633 0.18,-0.14 0.156,-0.046 0.097,0 0,0" /></g><g
         transform="matrix(0.12238717,0,0,0.12238717,3.6179382,9.6487453)"
         id="g72"><path
           inkscape:connector-curvature="0"
           id="path74"
           style="fill:#0ea5d5;fill-opacity:1;fill-rule:nonzero;stroke:none"
           d="m 0,0 c 4.639,4.286 8.952,9.041 15.326,10.899 2.463,0.719 5.007,1.158 7.471,1.872 3.911,1.132 7.786,2.39 11.677,3.595 0.316,0.097 0.632,0.196 0.931,0.288 0.764,-1.232 0.637,-2.287 -0.394,-3.439 C 33.923,12 32.477,11.477 30.94,11.109 25.993,9.925 21.031,8.791 16.108,7.511 10.786,6.126 6.034,3.486 1.452,0.519 1.167,0.334 0.883,0.149 0.594,-0.028 0.474,-0.102 0.341,-0.157 0.214,-0.22 0.143,-0.147 0.071,-0.074 0,0" /></g><g
         transform="matrix(0.12238717,0,0,0.12238717,2.9498266,16.117825)"
         id="g76"><path
           inkscape:connector-curvature="0"
           id="path78"
           style="fill:#0ea5d5;fill-opacity:1;fill-rule:nonzero;stroke:none"
           d="m 0,0 c 4.296,1.273 8.48,3.032 12.993,3.403 2.052,0.17 4.194,0.044 6.215,-0.356 5.375,-1.063 10.754,-2.045 16.22,-2.504 1.155,-0.097 1.431,-0.653 0.752,-1.624 -1.04,-1.485 -2.623,-1.845 -4.265,-1.588 -2.919,0.455 -5.814,1.068 -8.714,1.644 C 18.64,-0.119 14.075,0.828 9.392,0.586 6.828,0.454 4.275,0.112 1.718,-0.144 1.161,-0.199 0.608,-0.291 0.054,-0.366 0.036,-0.244 0.018,-0.122 0,0" /></g><g
         transform="matrix(0.12238717,0,0,0.12238717,6.3932753,3.5057906)"
         id="g80"><path
           inkscape:connector-curvature="0"
           id="path82"
           style="fill:#0572b5;fill-opacity:1;fill-rule:nonzero;stroke:none"
           d="m 0,0 c 0.892,1.43 1.767,2.87 2.676,4.287 2.868,4.469 4.463,9.427 5.704,14.539 1.229,5.062 3.218,9.842 5.663,14.434 0.509,0.954 1.114,1.83 2.175,2.255 0.735,0.295 1.466,0.401 2.312,-0.111 C 15.102,32.062 14.515,27.578 13.251,23.405 11.689,18.25 10.114,13.117 7.365,8.431 5.633,5.478 3.533,2.83 0.99,0.538 0.718,0.292 0.354,0.149 0.031,-0.041 Z" /></g><g
         transform="matrix(0.12238717,0,0,0.12238717,5.2687331,9.1602124)"
         id="g84"><path
           inkscape:connector-curvature="0"
           id="path86"
           style="fill:#0ea5d5;fill-opacity:1;fill-rule:nonzero;stroke:none"
           d="m 0,0 c 4.218,6.176 9.978,9.994 17.218,11.714 3.235,0.768 6.368,1.971 9.708,3.028 0.52,-0.42 0.464,-1.115 0.225,-1.835 C 26.782,11.796 26.084,10.909 25.028,10.433 23.663,9.819 22.279,9.079 20.831,8.848 13.436,7.663 6.879,4.55 0.727,0.435 0.492,0.278 0.242,0.145 0,0" /></g><g
         transform="matrix(0.12238717,0,0,0.12238717,4.4323392,14.968047)"
         id="g88"><path
           inkscape:connector-curvature="0"
           id="path90"
           style="fill:#0ea5d5;fill-opacity:1;fill-rule:nonzero;stroke:none"
           d="m 0,0 c 3.442,2.283 7.112,3.894 11.129,4.455 1.857,0.26 3.809,0.264 5.667,0.009 3.462,-0.475 6.915,-0.836 10.41,-0.73 0.139,0.004 0.279,-0.047 0.41,-0.07 C 27.981,2.462 27.373,1.443 25.983,0.796 24.317,0.02 22.548,0.106 20.854,0.405 15.89,1.279 10.944,1.926 5.916,0.938 3.958,0.554 1.973,0.309 0,0" /></g><g
         transform="matrix(0.12238717,0,0,0.12238717,5.6288451,4.916829)"
         id="g92"><path
           inkscape:connector-curvature="0"
           id="path94"
           style="fill:#0572b5;fill-opacity:1;fill-rule:nonzero;stroke:none"
           d="m 0,0 c 0.223,0.264 0.396,0.539 0.633,0.74 5.144,4.382 9.079,9.684 12.109,15.706 1.353,2.687 2.864,5.293 4.332,7.92 0.657,1.178 1.58,2.085 2.913,2.499 0.994,0.308 1.191,0.278 2.387,-0.499 C 20.241,25.088 19.316,22.957 18.305,20.891 16.492,17.186 14.759,13.442 12.296,10.096 9.251,5.958 5.478,2.664 1.009,0.152 0.799,0.034 0.57,-0.057 0.341,-0.131 0.275,-0.153 0.178,-0.072 0,0" /></g><g
         transform="matrix(0.12238717,0,0,0.12238717,8.0984591,8.4581017)"
         id="g96"><path
           inkscape:connector-curvature="0"
           id="path98"
           style="fill:#0572b5;fill-opacity:1;fill-rule:nonzero;stroke:none"
           d="m 0,0 c -3.486,-2.299 -5.171,-6.154 -7.803,-9.221 -3.128,-3.645 -7.083,-5.816 -11.759,-6.837 0.853,0.575 1.703,1.155 2.56,1.725 4.2,2.793 7.887,6.077 10.278,10.626 0.404,0.768 0.922,1.479 1.416,2.196 0.931,1.348 2.213,2.14 3.852,2.293 C -0.876,0.836 -0.271,0.829 0,0" /></g><g
         transform="matrix(0.12238717,0,0,0.12238717,7.4325015,1.828401)"
         id="g100"><path
           inkscape:connector-curvature="0"
           id="path102"
           style="fill:#0ea5d5;fill-opacity:1;fill-rule:nonzero;stroke:none"
           d="m 0,0 c 0.054,0.192 0.106,0.385 0.159,0.577 0.097,0 0.156,-0.046 0.18,-0.14 C 0.224,0.293 0.109,0.149 -0.006,0.005 Z" /></g><g
         transform="matrix(0.12238717,0,0,0.12238717,8.8671974,0.96648933)"
         id="g104"><path
           inkscape:connector-curvature="0"
           id="path106"
           style="fill:#0572b5;fill-opacity:1;fill-rule:nonzero;stroke:none"
           d="m 0,0 c -0.049,-0.159 -0.098,-0.318 -0.146,-0.477 -0.06,0.028 -0.12,0.055 -0.178,0.083 0.086,0.149 0.173,0.298 0.26,0.446 z" /></g><g
         transform="matrix(0.12238717,0,0,0.12238717,5.6060076,4.8849716)"
         id="g108"><path
           inkscape:connector-curvature="0"
           id="path110"
           style="fill:#0572b5;fill-opacity:1;fill-rule:nonzero;stroke:none"
           d="m 0,0 c -0.018,-0.031 -0.036,-0.062 -0.055,-0.093 -0.049,0.034 -0.097,0.069 -0.146,0.103 0.035,0.031 0.071,0.086 0.105,0.084 C -0.062,0.092 -0.031,0.034 0,0" /></g><g
         transform="matrix(0.12238717,0,0,0.12238717,6.3605368,3.4722075)"
         id="g112"><path
           inkscape:connector-curvature="0"
           id="path114"
           style="fill:#0ea5d5;fill-opacity:1;fill-rule:nonzero;stroke:none"
           d="M 0,0 C 0.089,0.091 0.179,0.183 0.268,0.274 L 0.299,0.233 C 0.196,0.159 0.093,0.084 -0.01,0.009 Z" /></g><g
         transform="matrix(0.12238717,0,0,0.12238717,6.3593374,3.4733335)"
         id="g116"><path
           inkscape:connector-curvature="0"
           id="path118"
           style="fill:#0ea5d5;fill-opacity:1;fill-rule:nonzero;stroke:none"
           d="m 0,0 c -0.035,-0.048 -0.07,-0.095 -0.106,-0.143 0.006,0.023 0.006,0.053 0.021,0.068 0.027,0.026 0.063,0.044 0.095,0.066 z" /></g><g
         transform="matrix(0.12238717,0,0,0.12238717,7.4317794,1.8290619)"
         id="g120"><path
           inkscape:connector-curvature="0"
           id="path122"
           style="fill:#0ea5d5;fill-opacity:1;fill-rule:nonzero;stroke:none"
           d="m 0,0 c -0.021,-0.04 -0.036,-0.085 -0.066,-0.116 -0.017,-0.017 -0.058,-0.009 -0.088,-0.013 0.053,0.041 0.106,0.082 0.16,0.124 z" /></g><g
         transform="matrix(0.12238717,0,0,0.12238717,14.683941,18.608526)"
         id="g124"><path
           inkscape:connector-curvature="0"
           id="path126"
           style="fill:#0572b5;fill-opacity:1;fill-rule:nonzero;stroke:none"
           d="m 0,0 c 0.159,-0.188 0.642,-0.508 0.722,-0.909 0.184,-0.926 -0.993,-2.067 -2.014,-2.056 -0.669,0.008 -1.1,0.31 -1.088,1.053 C -2.365,-0.966 -1.367,-0.028 0,0" /></g></g></g></svg>