<svg xmlns="http://www.w3.org/2000/svg" viewBox="0 0 108.76 144.13"><path d="M13.44 125.51s0 7.5-.14 9.45c-.09 1.57-.23 5-3.57 5s-4.26-3.96-4.54-5.69a24.54 24.54 0 0 1-.32-4.17c0-2.23.14-8.44 5.37-8.44a6 6 0 0 1 3.15.83v3zM0 131c0 13 7 13 8 13a5.4 5.4 0 0 0 5.52-4.31l.09 4.13c.88-.05 1.76-.14 3.2-.14a12.45 12.45 0 0 1 1.29 0 9.92 9.92 0 0 1 1.16.1c-.74-1.48-1.3-4.82-1.3-12.05 0-7 0-19 .61-22.57a16 16 0 0 1-6.26 1.58c1.25 1.34 1.25 2 1.25 8.15a11.9 11.9 0 0 0-3.89-.6C1.35 118.37 0 125.6 0 131m25.13-2.37c.05-3.85.84-7.28 4.13-7.28 3.61 0 3.89 4 3.79 7.28zm12.51.46c0-5.42-1.06-10.75-7.92-10.75-9.45 0-9.45 10.47-9.45 12.69 0 9.41 4.21 13.12 11.3 13.12a18.16 18.16 0 0 0 5.52-.7 16.66 16.66 0 0 1 .46-4.17 8.22 8.22 0 0 1-5 1.39c-7.23 0-7.33-6.58-7.33-8.85h12.33l.09-2.74m15.08 2c0 4.31-.79 10.1-6.17 10.1a11.27 11.27 0 0 1-2.27-.28c-.09-1.67-.09-4.54-.09-7.88a24.74 24.74 0 0 1 .74-7.09c1-3.29 3.15-3.33 3.57-3.33 3.52 0 4.22 4.86 4.22 8.48zm-13.3 5.05c0 3.43 0 5.37-.56 6.85a19.36 19.36 0 0 0 7.14 1.15 10.07 10.07 0 0 0 9.87-5.79 21.65 21.65 0 0 0 1.81-9c0-1.66-.19-5.32-1.53-7.64a6.43 6.43 0 0 0-5.61-3.29c-4.44 0-5.74 3.71-6.44 5.61 0-2.37.05-10.61.42-14.83a18.47 18.47 0 0 1-6.91 1.81c1.81.74 1.81 3.8 1.81 13.76v11.4m27.12 7.74a16.55 16.55 0 0 0-2.93-.23 25.28 25.28 0 0 0-3.56.23c.46-.88.65-1.3.78-4.31.19-4.13.24-15.16-.09-17.47-.23-1.76-.65-2-1.29-2.5 3.79-.38 4.86-.65 6.62-1.49a28.48 28.48 0 0 0-.42 6.17c-.09 16-.14 17.7.89 19.6m14.83-13.12c-.09 2.92-.14 5-.92 6.58a4.21 4.21 0 0 1-3.8 2.69c-2.79 0-3.39-2.32-3.39-4.59 0-4.36 3.9-4.68 5.66-4.68zm-12.74 5.7c0 2.92.88 5.84 3.48 7.09a6.67 6.67 0 0 0 2.68.51c4.27 0 5.7-3.15 6.58-5.1a41.78 41.78 0 0 0 .14 4.91c.84 0 1.67-.14 3.06-.14.79 0 1.53.09 2.32.14a5.16 5.16 0 0 1-.93-3.06c-.09-1.76-.09-3.52-.09-6v-9.46c0-3.52-.93-7-7.88-7a17.39 17.39 0 0 0-8.62 2.09 12 12 0 0 1 1.44 3.89 10 10 0 0 1 6.58-2.41c3.84 0 3.84 2.55 3.84 6.17-.88 0-1.62-.14-2.87-.14-5.89 0-9.78 2.28-9.78 8.49m39.43 2.82a11.77 11.77 0 0 0 .69 4.59 25.13 25.13 0 0 0-3.52-.24 14 14 0 0 0-2.59.24 7.29 7.29 0 0 0 .37-1.63c.14-1.06.23-4.63.23-5.88v-5c0-2.17 0-5.33-.14-6.44a2.82 2.82 0 0 0-3-2.92c-2.64 0-3.52 2-3.85 3.53s-.37 3.38-.37 10.24c0 5.93 0 6.48.51 8.1a26.23 26.23 0 0 0-3.15-.18 18.29 18.29 0 0 0-2.78.18c.33-.74.51-1.11.6-3.7s.28-15.06-.14-18c-.23-1.81-.69-2.22-1.2-2.69 3.75-.18 5-.78 6.12-1.38v4.9c.55-1.44 1.71-4.64 6.34-4.64 5.8 0 5.84 4.22 5.89 7v13.92"/><path d="M61 47.64c-1.49 0 .28.77 2.23 1.07a17.25 17.25 0 0 0 1.46-1.26 10.88 10.88 0 0 1-3.69.19m8-2a9.55 9.55 0 0 0 1.77-4 9.58 9.58 0 0 1-1.25 2.75c-2.79 1.76-.26-1 0-2.11-3 3.78-.41 2.27-.52 3.33m3-7.71c.18-2.69-.53-1.84-.77-.81.28.14.5 1.9.77.81M55.3 1.16c.8.14 1.73.25 1.59.45.88-.2 1.08-.37-1.59-.45m1.59.45l-.56.11.53-.05v-.06M81.76 39c.09 2.42-.7 3.59-1.42 5.67l-1.29.64c-1.06 2 .1 1.3-.66 2.94-1.65 1.46-5 4.59-6.08 4.87-.78 0 .53-.92.71-1.28-2.21 1.52-1.78 2.28-5.16 3.2l-.09-.22C59.44 58.7 47.87 50.93 48 40.34c-.09.67-.26.5-.44.77A13.34 13.34 0 0 1 55.07 28a12.63 12.63 0 0 1 14 1.82 12.52 12.52 0 0 0-10.23-4.91c-4.42.07-8.55 2.88-9.93 5.93-2.27 1.42-2.53 5.5-3.52 6.24-1.33 9.76 2.5 14 9 18.94 1 .68.29.79.42 1.31a17.6 17.6 0 0 1-5.73-4.39 15.31 15.31 0 0 0 3 3.44c-2-.68-4.74-4.91-5.53-5.08 3.5 6.25 14.18 11 19.78 8.63a23.37 23.37 0 0 1-8.79-1c-1.22-.63-2.88-1.93-2.59-2.17 7.64 2.85 15.53 2.15 22.13-3.14 1.67-1.38 3.51-3.62 4.04-3.62-.8 1.2.14.58-.48 1.64 1.68-2.7-.72-1.1 1.73-4.66l.91 1.25c-.34-2.25 2.79-5 2.47-8.51.72-1.09.8 1.16 0 3.66 1-2.77.28-3.21.55-5.5a19.58 19.58 0 0 1 .87 2.4c-.69-2.68.71-4.51 1.05-6.06-.34-.15-1.06 1.18-1.23-2 0-1.37.39-.72.52-1.06a6.11 6.11 0 0 1-1.4-3.22c.31-.47.83 1.23 1.26 1.3a30.39 30.39 0 0 1-.77-4.06c-1.24-2.59-.43.35-1.44-1.11-1.32-4.11 1.1-1 1.26-2.82 2 2.89 3.14 7.38 3.66 9.24a37.81 37.81 0 0 0-1.83-6.59c.61.26-1-4.66.79-1.4C87.19 15.55 81 9.06 75.31 6c.69.63 1.57 1.43 1.26 1.56-2.84-1.68-2.34-1.82-2.75-2.53-2.3-.94-2.46.08-4 0-4.33-2.29-5.17-2.03-9.17-3.48l.18.85c-2.88-1-3.36.36-6.47 0-.19-.15 1-.54 2-.68-2.79.37-2.66-.55-5.38.1A23.83 23.83 0 0 1 53.05.64C50.78.78 47.63 2 48.6.88c-3.7 1.66-10.28 4-14 7.44l-.11-.77c-1.69 2-7.38 6.06-7.83 8.69l-.46.11a47.1 47.1 0 0 0-2.14 4.71c-1.16 2-1.69.76-1.53 1.07a72 72 0 0 0-4.36 11.61c.69 1 0 6.23.28 10.39-1.14 20.55 14.41 40.49 31.42 45.1 2.49.89 6.19.86 9.34.94-3.71-1.06-4.19-.56-7.82-1.82-2.61-1.23-3.18-2.64-5-4.25l.73 1.3C43.48 84.11 45 83.81 42 82.87l.79-1c-1.18-.09-3.12-2-3.65-3l-1.29.05c-1.54-1.9-2.37-3.28-2.31-4.35l-.41.74c-.47-.81-5.69-7.15-3-5.68a5.93 5.93 0 0 1-1.89-2.06l.55-.63c-1.3-1.68-2.4-3.83-2.32-4.54a3 3 0 0 0 1.66 1.27c-3.29-8.16-3.48-.45-6-8.31h.53a17.33 17.33 0 0 1-1-1.92l.34-2.37c-2.36-2.74-.66-11.65-.32-16.53.24-2 2-4.1 3.3-7.42l-.8-.14c1.54-2.69 8.8-10.8 12.16-10.38 1.63-2.05-.32 0-.64-.52 3.58-3.71 4.71-2.62 7.12-3.29 2.6-1.54-2.23.61-1-.59C48.31 11.05 47 9.59 52.87 9c.62.35-1.43.54-1.95 1 3.75-1.84 11.87-1.42 17.14 1 6.12 2.86 13 11.31 13.27 19.26l.31.09c-.16 3.16.48 6.81-.63 10.17l.75-1.52m-37.1 10.69l-.21 1.05a19.89 19.89 0 0 0 3 3.82c-.9-1.76-1.57-2.48-2.8-4.87M47 49.6a8 8 0 0 1-1.17-2 13.59 13.59 0 0 0 1.61 3.4L47 49.6m41.08-8.93l-.22.56a26.55 26.55 0 0 1-2.6 8.3 26.09 26.09 0 0 0 2.82-8.86M55.6.45c1-.37 2.48-.21 3.55-.45-1.39.12-2.78.19-4.15.36l.61.09M20.13 19.31c.23 2.15-1.62 3 .41 1.57 1.09-2.46-.43-.68-.41-1.57m-2.39 10a23.39 23.39 0 0 0 .73-3.13c-1.29 1.65-.59 2-.73 3.13m49.19 82.25l-3.84 3.83-3.84-3.83 3.84-3.84 3.84 3.84" fill="#d70751"/></svg>