<svg xmlns="http://www.w3.org/2000/svg" width="1024" height="324" viewBox="-1.8 -1.8 197.9 62.6"><path d="M194.4 16.4c0-9-7.4-16.4-16.5-16.4s-16.4 7.4-16.4 16.4v12.8c0 2 1.6 3.7 3.7 3.7h12.7c9.1 0 16.5-7.4 16.5-16.5" fill="#072b61"/><path d="M182.8 3.9c-4.3 0-7.8 3.5-7.8 7.7v4.1h-4.1a7.7 7.7 0 0 0 0 15.4c4.3 0 7.8-3.4 7.8-7.7v-4.1h4.1c4.2 0 7.7-3.4 7.7-7.7 0-4.2-3.5-7.7-7.7-7.7zm0 3.6c2.2 0 4 1.9 4 4.1 0 2.3-1.8 4.1-4 4.1h-3.5c-.4 0-.6-.3-.6-.6v-3.5c0-2.2 1.8-4.1 4.1-4.1zm-106 10.4c-1.6 0-2.9 1.2-2.9 2.9v15.4c-1.5-2.7-4.7-4.6-8.6-4.6-7.8 0-13 5.9-13 13.7 0 7.9 5.4 13.8 13 13.8 3.4 0 6.4-1.4 8.1-3.9l.7 1.7c.4 1.1 1.5 1.9 2.8 1.9 1.6 0 2.9-1.3 2.9-2.9V20.8c0-1.7-1.3-2.9-3-2.9zm-59.8 0c-6.1 0-11 5-11 11v3.5H2.4c-1.3 0-2.4 1.1-2.4 2.4 0 1.3 1.1 2.6 2.4 2.6H6v18.5c0 1.6 1.3 2.9 2.9 2.9 1.7 0 3-1.3 3-2.9V37.4h3.9c1.4 0 2.5-1.3 2.5-2.6s-1.1-2.4-2.5-2.4h-3.9v-3.5c0-2.8 2.3-5.5 5.1-5.5.3 0 .5 0 .8.1 1.6.2 3.1-.5 3.3-2.1.3-1.6-.9-3.1-2.5-3.3-.5-.1-1.1-.2-1.6-.2zm153.9 1.4h3.5c.4 0 .6.3.6.6v3.5c0 2.3-1.8 4.1-4.1 4.1-2.2 0-4.1-1.8-4.1-4.1 0-2.2 1.9-4.1 4.1-4.1zm18.9 9.7v.2h.3v.9h.2v-.9h.3V29h-.8zm.9 0v1.1h.2v-.7.1l.3.6.3-.6v-.2.8h.2V29h-.2l-.2.5-.1.2v-.2l-.3-.5h-.2zM34.3 31.6c-7.7 0-13.6 6.1-13.6 13.7 0 7.7 6.1 13.8 13.7 13.8 4.2 0 8.5-1.8 11-4.5.5-.6.8-1.3.9-1.9 0-.5-.2-1-.5-1.4-.5-.6-1.2-1-2-1-.5 0-1 .1-1.4.5-2.1 2.1-4.7 3.4-7.8 3.4-4.3 0-7.5-3.1-7.8-7.1h18.5c1.1 0 2.2-.7 2.2-1.9 0-7.7-5.7-13.6-13.2-13.6zm64 0c-7.7 0-13.8 6.1-13.8 13.7 0 7.7 6.1 13.8 13.8 13.8 7.6 0 13.7-6.1 13.7-13.8 0-7.6-6.1-13.7-13.7-13.7zm33.5 0c-4 0-6.7 1.2-9 4.2l-.3-1.4c-.2-1.5-1.4-2.6-2.9-2.6-1.6 0-2.9 1.3-2.9 3v21.1c0 1.6 1.3 2.9 2.9 2.9 1.6 0 3-1.3 3-2.9V44.6c0-5.2 4.4-7.8 9.2-7.8 1.4 0 2.6-1.2 2.6-2.6 0-1.5-1.2-2.6-2.6-2.6zm17.3 0c-7.7 0-13.8 6.1-13.8 13.7 0 7.7 6 13.8 13.2 13.8 3.7 0 6.9-1.9 8.3-3.8l.8 1.8c.3 1 1.3 1.7 2.5 1.7 1.5 0 2.7-1.2 2.7-2.7V45.3c0-7.3-5.2-13.7-13.7-13.7zM34.3 36.5c3.9 0 6.8 2.8 7.3 6.5H26.9c.6-3.8 3.3-6.5 7.4-6.5zm31.8.3c4.8 0 7.8 3.7 7.8 8.5 0 4.9-3 8.5-7.8 8.5s-7.9-3.8-7.9-8.5c0-4.6 3.1-8.5 7.9-8.5zm32.2 0c4.7 0 7.9 3.9 7.9 8.5 0 4.7-3.2 8.5-7.9 8.5-4.8 0-8-3.8-8-8.5 0-4.6 3.2-8.5 8-8.5zm50.8 0c4.8 0 7.9 3.9 7.9 8.5 0 4.7-3.1 8.5-7.9 8.5-4.8 0-7.9-3.8-7.9-8.5 0-4.6 3.1-8.5 7.9-8.5zm14.5 18.3v.2h.3v.9h.2v-.9h.3v-.2h-.8zm.9 0v1.1h.2v-.7l.1.1.2.6.3-.6v-.1.7h.2v-1.1h-.2l-.2.5-.1.2v-.2l-.3-.5h-.2z" fill="#0a57a4"/><path d="M175 15.7v-4.1c0-4.2 3.5-7.7 7.7-7.7.7 0 1.1.1 1.7.2.9.3 1.6 1 1.6 1.8 0 1-.7 1.7-1.8 1.7-.5 0-.7-.1-1.5-.1-2.2 0-4 1.9-4 4.1v3.5c0 .4.2.6.5.6h2.7c1 0 1.8.8 1.8 1.8s-.8 1.8-1.8 1.8h-3.2v4.1c0 4.3-3.5 7.7-7.8 7.7-.6 0-1.1 0-1.7-.2-.8-.2-1.5-.9-1.5-1.8 0-1 .7-1.7 1.8-1.7.5 0 .7.1 1.4.1 2.3 0 4.1-1.8 4.1-4.1v-3.5c0-.3-.2-.6-.6-.6h-2.6c-1 0-1.8-.8-1.8-1.8s.8-1.8 1.8-1.8h3.2" fill="#fff"/></svg>