<svg viewBox="0 0 250 59" xmlns="http://www.w3.org/2000/svg"><path d="M.98 58h9.73V32.65c0-5 3.28-8.63 7.97-8.63 4.53 0 7.34 2.85 7.34 7.46V58h9.46V32.4c0-4.96 3.2-8.4 7.89-8.4 4.76 0 7.42 2.9 7.42 7.97V58h9.73V29.6c0-8.28-5.36-13.79-13.52-13.79-5.98 0-10.9 3.2-12.9 8.32h-.23c-1.52-5.31-5.7-8.32-11.56-8.32-5.62 0-10 3.17-11.8 7.97h-.19V16.6H.98V58zm80.83-6.68c-4.22 0-7.03-2.15-7.03-5.55 0-3.28 2.69-5.39 7.38-5.7l9.57-.59v3.17c0 5-4.42 8.67-9.92 8.67zm-2.93 7.34c5.3 0 10.5-2.77 12.89-7.26h.2V58h9.37V29.48c0-8.32-6.68-13.75-16.96-13.75-10.54 0-17.14 5.55-17.57 13.29h9.02c.63-3.44 3.56-5.67 8.16-5.67 4.8 0 7.74 2.5 7.74 6.84v2.97l-10.94.62c-10.08.63-15.74 5.04-15.74 12.38 0 7.46 5.82 12.5 13.83 12.5zm65.15-27.3c-.66-8.71-7.42-15.63-18.35-15.63-12.04 0-19.85 8.32-19.85 21.57 0 13.43 7.81 21.52 19.92 21.52 10.4 0 17.54-6.1 18.32-15.35h-9.18c-.9 4.68-4.1 7.5-9.02 7.5-6.17 0-10.16-5-10.16-13.67 0-8.52 3.95-13.68 10.08-13.68 5.2 0 8.28 3.32 9.07 7.74h9.17zM174.08.7c-16.45 0-26.76 11.2-26.76 29.14s10.31 29.1 26.76 29.1c16.4 0 26.71-11.17 26.71-29.1S190.5.7 174.08.7zm0 8.59c10.03 0 16.44 7.97 16.44 20.55 0 12.53-6.4 20.5-16.44 20.5-10.08 0-16.45-7.96-16.45-20.5 0-12.58 6.37-20.55 16.45-20.55zm30.82 32.85c.43 10.4 8.94 16.8 21.91 16.8 13.63 0 22.23-6.72 22.23-17.42 0-8.4-4.85-13.13-16.29-15.75l-6.48-1.48c-6.92-1.64-9.77-3.83-9.77-7.58 0-4.69 4.3-7.81 10.66-7.81 6.45 0 10.86 3.16 11.33 8.44h9.61C247.87 7.4 239.66.7 227.24.7c-12.26 0-20.97 6.75-20.97 16.75 0 8.05 4.92 13.05 15.3 15.43l7.31 1.72c7.11 1.68 10 4.03 10 8.09 0 4.69-4.72 8.05-11.52 8.05-6.88 0-12.07-3.4-12.7-8.6h-9.76z"/></svg>