<svg xmlns="http://www.w3.org/2000/svg" viewBox="0 0 487.02 115.3"><path d="M221.56 26.4L204 88.53h-8.53L182.7 43.12a28 28 0 0 1-1-6.32h-.17a31.63 31.63 0 0 1-1.13 6.2l-12.86 45.53h-8.45l-18.2-62.13h8l13.22 47.66a31.52 31.52 0 0 1 1 6.24h.21a36.69 36.69 0 0 1 1.35-6.24l13.78-47.66h7l13.17 48a36.53 36.53 0 0 1 1 5.81h.17a33.89 33.89 0 0 1 1.17-6l12.71-47.81zm9.79 6.49a4.48 4.48 0 0 1-3.25-1.3 4.35 4.35 0 0 1-1.34-3.29 4.54 4.54 0 0 1 4.59-4.64 4.62 4.62 0 0 1 3.31 1.34 4.45 4.45 0 0 1 1.34 3.3 4.39 4.39 0 0 1-1.37 3.25 4.52 4.52 0 0 1-3.28 1.34zm3.46 55.64h-7.1V44.16h7.1zm47.76 0h-7.11v-25.3q0-14.13-10.31-14.13a11.21 11.21 0 0 0-8.82 4 14.87 14.87 0 0 0-3.49 10.12v25.3h-7.1V44.16h7.1v7.37h.16q5-8.41 14.55-8.41 7.29 0 11.14 4.7t3.86 13.58v27.13zm50.55 0H326V81h-.17q-4.95 8.58-15.25 8.58a16.58 16.58 0 0 1-13.37-6q-5-6-5-16.23 0-11 5.54-17.63t14.78-6.63q9.13 0 13.3 7.19h.17V22.84h7.11v65.69zM326 68.47v-6.54a12.68 12.68 0 0 0-3.55-9.1 11.9 11.9 0 0 0-9-3.73 12.29 12.29 0 0 0-10.23 4.77c-2.48 3.18-3.72 7.56-3.72 13.17q0 7.67 3.57 12.11a11.68 11.68 0 0 0 9.6 4.44 12.15 12.15 0 0 0 9.64-4.29A16 16 0 0 0 326 68.47zm38.17 21.1q-9.84 0-15.71-6.22t-5.86-16.49q0-11.18 6.11-17.46t16.51-6.28q9.91 0 15.49 6.11t5.57 16.94q0 10.62-6 17t-16.1 6.39zm.52-40.47q-6.85 0-10.83 4.66t-4 12.84q0 7.89 4 12.44a13.72 13.72 0 0 0 10.79 4.55c4.6 0 8.12-1.49 10.6-4.47s3.7-7.2 3.7-12.69-1.23-9.82-3.7-12.83-5.96-4.5-10.55-4.5zm85.61-4.94L437 88.53h-7.37l-9.13-31.76a20.8 20.8 0 0 1-.69-4.12h-.17a19.77 19.77 0 0 1-.91 4l-9.92 31.84h-7.11l-13.43-44.33h7.45l9.18 33.36a20.3 20.3 0 0 1 .61 4h.35a17.83 17.83 0 0 1 .78-4.07l10.22-33.28h6.5l9.19 33.45a25.59 25.59 0 0 1 .65 4h.34a18.82 18.82 0 0 1 .74-4l9-33.45zm3.29 42.76V79.3a21 21 0 0 0 12.78 4.29q9.36 0 9.36-6.24a5.34 5.34 0 0 0-.8-3 7.74 7.74 0 0 0-2.16-2.19 16.11 16.11 0 0 0-3.21-1.71c-1.22-.51-2.55-1-4-1.59a49.61 49.61 0 0 1-5.18-2.36 15.48 15.48 0 0 1-3.73-2.69 10.09 10.09 0 0 1-2.25-3.4 12.1 12.1 0 0 1-.76-4.46 10.61 10.61 0 0 1 1.43-5.52 12.88 12.88 0 0 1 3.81-4 17.86 17.86 0 0 1 5.44-2.44 24.1 24.1 0 0 1 6.3-.83 25.5 25.5 0 0 1 10.32 2v7.14a20.12 20.12 0 0 0-11.27-3.21 12.93 12.93 0 0 0-3.6.46 8.84 8.84 0 0 0-2.75 1.28 5.92 5.92 0 0 0-1.77 2 5.16 5.16 0 0 0-.63 2.53 6.11 6.11 0 0 0 .63 2.91 6.42 6.42 0 0 0 1.84 2.08 14.27 14.27 0 0 0 3 1.65c1.15.49 2.47 1 3.94 1.6 2 .76 3.73 1.53 5.29 2.32a17.87 17.87 0 0 1 4 2.69 10.72 10.72 0 0 1 2.52 3.39 11.17 11.17 0 0 1 .89 4.64 10.84 10.84 0 0 1-1.46 5.72 12.3 12.3 0 0 1-3.87 4 17.74 17.74 0 0 1-5.59 2.38 27.61 27.61 0 0 1-6.63.78 25 25 0 0 1-11.88-2.6zM50.91 55.26h58.88V4l-58.88 8.59zm-4.15 0V13.2L4 19.43v35.83zm0 4.15H4v36.28L46.76 102zm4.15 0v43.2l58.88 8.69V59.41z" fill="#0078d6"/></svg>